<?xml version="1.0" standalone="no"?>
<!DOCTYPE svg PUBLIC "-//W3C//DTD SVG 20010904//EN"
 "http://www.w3.org/TR/2001/REC-SVG-20010904/DTD/svg10.dtd">
<svg version="1.0" xmlns="http://www.w3.org/2000/svg"
 width="1024.000000pt" height="1024.000000pt" viewBox="0 0 1024.000000 1024.000000"
 preserveAspectRatio="xMidYMid meet">

<g transform="translate(0.000000,1024.000000) scale(0.100000,-0.100000)"
fill="#000000" stroke="none">
<path d="M0 5120 l0 -5120 5120 0 5120 0 0 5120 0 5120 -5120 0 -5120 0 0
-5120z m3953 4209 c291 -43 485 -137 663 -318 l71 -72 114 16 c228 33 554 30
769 -7 l64 -11 25 34 c73 100 224 213 354 268 90 37 235 76 342 90 97 14 355
27 355 18 0 -4 -14 -13 -30 -22 -76 -40 -240 -166 -316 -245 -68 -70 -182
-210 -172 -210 2 0 68 -22 148 -49 476 -159 952 -437 1347 -784 244 -215 507
-507 685 -762 310 -445 534 -976 633 -1504 45 -238 57 -365 62 -646 7 -339
-11 -570 -64 -844 -15 -79 -17 -82 -30 -60 -8 14 -12 16 -9 6 3 -10 2 -16 -2
-13 -4 2 -46 6 -92 7 -81 2 -86 1 -98 -22 -15 -27 -16 -34 18 216 31 227 43
469 37 720 -23 914 -332 1707 -929 2376 -88 99 -334 340 -426 417 -260 218
-597 429 -898 562 -135 60 -355 143 -411 154 -37 8 -32 21 -94 -224 -23 -91
-46 -173 -51 -183 -9 -17 -5 -18 69 -12 l78 7 29 -88 c16 -49 37 -108 47 -131
l18 -43 125 0 c115 0 126 2 136 20 13 24 61 50 92 50 65 0 126 -78 114 -143
-16 -84 -127 -118 -187 -58 -16 16 -32 42 -35 58 l-6 28 -109 0 -110 0 6 -25
c8 -30 115 -280 127 -296 10 -14 -2 -24 -124 -105 -54 -35 -98 -66 -98 -69 0
-3 16 -32 36 -65 19 -33 33 -53 31 -44 -13 40 40 52 63 15 8 -14 61 -78 118
-142 89 -104 120 -154 95 -154 -16 0 -37 22 -182 193 -9 9 -23 17 -33 17 -20
0 -23 17 -9 40 14 21 3 32 -20 19 -29 -15 -24 -30 91 -238 55 -100 100 -185
100 -189 0 -4 -27 -40 -60 -80 l-60 -74 36 -25 c24 -15 45 -22 59 -19 21 5 79
63 184 183 45 51 58 60 73 52 10 -5 18 -15 18 -22 0 -7 -32 -54 -70 -106 l-69
-94 82 -46 c103 -58 212 -161 276 -260 71 -112 181 -320 171 -326 -5 -3 10
-38 34 -78 23 -39 45 -80 49 -89 6 -16 25 -18 207 -18 l200 0 0 59 c0 49 4 65
25 89 25 29 25 33 25 198 l0 169 -131 170 c-72 94 -144 184 -161 202 -22 23
-32 44 -36 79 -4 35 -2 45 7 40 7 -5 9 -16 5 -28 -3 -12 -2 -18 3 -15 14 9 63
-47 200 -223 180 -233 168 -210 164 -307 -1 -46 0 -122 4 -168 7 -75 10 -85
27 -85 34 0 78 -54 78 -95 0 -79 -59 -127 -131 -108 -31 8 -41 7 -47 -3 -6
-11 -53 -14 -208 -16 l-201 -3 41 -85 42 -85 204 -6 c113 -3 208 -7 213 -8 4
0 7 -15 7 -32 0 -23 13 -44 52 -86 l53 -55 3 -78 c4 -78 4 -78 34 -84 17 -3
59 -6 94 -6 l64 0 -6 -240 -7 -241 25 -27 c36 -38 41 -63 24 -113 -16 -46 -13
-56 29 -92 16 -14 17 -16 2 -11 -26 9 -11 -21 16 -33 13 -6 23 -21 24 -34 2
-18 0 -20 -7 -9 -5 8 -6 18 -3 23 3 4 -1 7 -9 5 -8 -2 -36 16 -63 40 -46 40
-48 45 -36 65 14 22 14 22 -7 4 -37 -34 -112 5 -127 64 -11 43 17 95 59 110
l36 13 0 213 0 213 -32 1 c-18 1 -37 2 -43 4 -5 1 -33 3 -61 3 l-51 2 -7 96
-7 96 -62 69 -62 68 -162 1 -163 0 22 -57 c12 -32 44 -114 72 -183 l51 -125
133 -3 132 -3 0 -26 0 -26 -124 5 -124 5 15 -41 c32 -93 95 -306 113 -386 15
-69 16 -86 6 -92 -11 -6 -9 -29 10 -120 33 -159 34 -155 -26 -163 -27 -4 -50
-10 -50 -13 0 -4 12 -54 26 -112 14 -58 27 -132 28 -165 2 -33 9 -85 15 -115
6 -30 18 -118 26 -195 14 -133 17 -141 42 -160 51 -37 115 -96 163 -148 42
-46 602 -812 817 -1117 l81 -115 -338 -3 -338 -2 15 -48 c62 -203 57 -449 -13
-622 -73 -180 -200 -304 -376 -368 l-73 -27 -560 -3 c-373 -2 -574 1 -603 8
-33 8 -48 7 -70 -4 -51 -26 -298 -105 -422 -136 -646 -157 -1292 -129 -1943
85 l-138 45 -701 0 c-385 0 -698 4 -696 9 2 4 53 84 113 176 l110 167 -4 187
c-1 102 -5 188 -6 189 -2 2 -23 -9 -47 -25 -56 -38 -159 -96 -161 -92 -17 26
-106 224 -148 326 l-53 133 -347 2 -347 3 57 80 c32 44 120 168 196 275 321
452 575 776 755 965 l67 70 13 190 c7 105 14 222 16 260 1 39 12 117 23 175
12 58 21 108 21 111 0 4 -21 9 -46 12 -25 2 -49 9 -54 13 -9 10 10 151 30 224
8 32 9 45 1 48 -6 2 -11 16 -11 31 0 39 54 251 95 370 19 58 35 107 35 110 0
4 -74 5 -165 3 l-165 -3 0 25 0 26 177 2 176 3 19 54 c10 30 41 108 68 172 28
65 50 123 50 131 0 10 -40 14 -188 16 l-189 4 -17 -47 c-23 -58 -63 -85 -127
-85 -55 0 -94 26 -115 76 -18 44 -18 68 3 111 41 88 159 97 222 17 l20 -26
205 -5 205 -6 44 94 44 94 -253 3 -254 2 0 266 0 265 134 172 c74 95 159 201
190 237 31 36 56 73 56 83 0 22 98 120 111 111 18 -11 8 -38 -31 -80 -22 -24
-40 -53 -40 -64 0 -12 -28 -50 -63 -88 -34 -37 -118 -138 -185 -224 l-122
-158 0 -240 0 -240 240 0 240 0 21 42 22 42 -82 79 c-69 66 -85 77 -104 70
-44 -15 -80 -7 -109 26 -32 36 -38 92 -13 125 9 12 15 42 15 74 0 52 1 55 56
105 44 40 225 246 315 360 17 21 49 18 49 -5 0 -17 -190 -241 -292 -344 -72
-73 -79 -84 -76 -115 3 -30 7 -35 38 -39 48 -7 84 -60 76 -112 -6 -35 -3 -39
71 -107 60 -54 80 -68 91 -59 10 9 11 13 0 19 -10 7 -9 15 6 41 11 18 44 78
74 133 135 247 242 366 402 450 30 16 57 30 59 31 1 2 -26 42 -60 89 -35 47
-68 93 -74 100 -7 11 -4 20 8 32 17 17 19 17 44 -12 84 -99 155 -177 186 -205
l35 -31 47 30 46 29 -46 54 c-25 29 -54 62 -63 74 -17 20 -14 27 90 220 59
109 108 205 108 211 0 7 -9 18 -20 25 -11 7 -20 16 -20 20 0 13 23 9 41 -8 17
-15 20 -12 48 45 l31 61 -114 80 -114 81 45 102 c35 80 93 223 93 231 0 0 -47
0 -105 -2 l-105 -3 -14 -33 c-33 -79 -118 -100 -181 -45 -30 27 -35 37 -35 75
0 34 6 51 30 78 50 56 108 57 168 2 22 -19 35 -21 147 -21 l124 0 43 130 43
130 67 -9 c37 -5 69 -8 72 -5 4 4 -100 428 -106 435 -2 2 -55 -14 -118 -35
-431 -145 -800 -348 -1173 -644 -127 -100 -414 -387 -533 -530 -419 -509 -660
-1014 -789 -1650 -93 -462 -98 -966 -14 -1486 11 -69 22 -135 25 -148 4 -15 2
-23 -6 -23 -7 0 -10 7 -6 18 5 14 4 14 -9 -2 -14 -19 -15 -19 -15 -1 0 17 -1
17 -18 2 -20 -19 -108 -24 -97 -7 3 6 2 10 -4 10 -5 0 -15 -8 -20 -17 -10 -17
-10 -17 -11 0 0 9 -4 17 -10 17 -5 0 -10 -10 -10 -22 0 -84 -54 139 -85 352
-48 330 -48 802 0 1115 70 450 177 792 371 1185 180 362 374 643 675 976 419
462 1019 853 1618 1053 67 22 129 41 136 41 25 0 26 20 4 53 -43 61 -158 184
-228 242 -74 62 -237 175 -252 175 -5 0 -9 5 -9 12 0 13 224 5 343 -13z m-795
-1530 c8 -12 10 -25 5 -28 -151 -130 -282 -250 -424 -388 -174 -171 -241 -231
-224 -203 27 47 148 191 246 294 121 127 357 345 374 346 6 0 16 -10 23 -21z
m4157 -94 c73 -63 179 -163 235 -222 114 -118 260 -291 260 -306 0 -5 -35 24
-77 65 -210 201 -287 273 -393 368 -63 57 -132 116 -152 133 -33 26 -35 32
-26 53 6 13 13 24 16 24 2 0 64 -52 137 -115z m-3415 -85 c0 -13 -26 -41 -72
-77 -151 -122 -424 -351 -445 -375 -19 -20 -21 -29 -14 -56 21 -71 -35 -152
-105 -152 -75 0 -124 47 -124 118 0 38 5 50 40 85 40 39 41 40 96 34 l56 -6
156 134 c190 162 382 313 400 314 6 1 12 -8 12 -19z m2712 -110 c228 -183 418
-352 418 -372 0 -27 -21 -21 -61 15 -20 17 -113 95 -205 172 -93 76 -206 170
-251 208 -52 42 -83 75 -83 88 0 10 4 19 9 19 5 0 83 -59 173 -130z m292 117
c-3 -8 2 -20 11 -27 8 -7 15 -21 15 -31 0 -24 16 -32 46 -25 33 9 30 22 -8 46
l-33 21 57 -2 c45 -2 55 -5 50 -17 -3 -10 -1 -13 6 -8 8 5 12 -1 12 -18 0 -14
4 -26 9 -26 18 0 262 -228 554 -518 l297 -296 0 -82 0 -82 45 -36 45 -37 0
-380 c0 -322 2 -379 14 -379 26 0 56 -50 56 -92 0 -50 -13 -74 -50 -93 -74
-38 -150 5 -150 85 0 52 13 76 50 95 l30 16 0 364 0 364 -45 31 -45 31 0 93 0
92 -247 245 c-236 233 -473 455 -553 519 -33 26 -39 28 -56 15 -54 -41 -144 8
-144 79 0 19 7 42 16 50 19 20 25 20 18 3z m-3564 -74 c0 -20 45 -16 64 6 15
16 56 26 56 13 0 -14 -34 -63 -49 -72 -29 -15 -77 -12 -96 6 -14 15 -18 14
-43 -2 -38 -25 -290 -262 -539 -508 l-213 -210 0 -55 c0 -153 -181 -208 -260
-79 -36 59 -18 138 43 189 28 23 107 25 148 4 17 -9 35 -12 43 -8 8 4 126 116
263 249 254 246 328 315 446 418 38 33 67 67 67 77 0 18 2 18 35 2 19 -9 35
-23 35 -30z m684 -249 c9 -8 16 -18 16 -22 0 -15 -48 -62 -63 -62 -8 0 -17 -4
-19 -10 -6 -19 -152 -160 -162 -157 -24 8 -12 29 61 113 63 72 141 153 150
154 1 0 9 -7 17 -16z m-304 -24 c0 -5 -7 -10 -16 -10 -8 0 -12 5 -9 10 3 6 10
10 16 10 5 0 9 -4 9 -10z m2900 -10 c0 -5 -4 -10 -10 -10 -5 0 -10 5 -10 10 0
6 5 10 10 10 6 0 10 -4 10 -10z m513 -275 c14 -14 28 -37 31 -51 9 -36 -10
-90 -42 -114 -16 -13 -22 -24 -16 -28 18 -12 69 -106 66 -121 -2 -7 1 -10 7
-6 13 7 13 -1 2 -30 -7 -18 -9 -18 -22 8 -28 53 -114 156 -141 167 -64 28 -79
116 -29 169 39 42 105 44 144 6z m-3626 -312 c5 -12 -19 -40 -86 -104 -50 -49
-102 -95 -114 -104 -27 -19 -47 -19 -47 -1 0 17 210 226 228 226 7 0 16 -8 19
-17z m3462 -100 c99 -94 111 -108 97 -121 -13 -13 -27 -3 -125 88 -108 101
-126 122 -114 134 15 15 36 0 142 -101z m306 77 c-3 -5 -2 -10 3 -10 5 0 9 -7
9 -15 0 -8 -4 -12 -8 -9 -4 2 -10 -2 -12 -8 -3 -7 -6 1 -7 17 -2 18 -4 23 -7
13 -5 -19 -15 -23 -26 -11 -11 10 13 33 35 33 10 0 16 -4 13 -10z m-38 -72
c-3 -8 -6 -5 -6 6 -1 11 2 17 5 13 3 -3 4 -12 1 -19z m-17 -15 c0 -12 -2 -12
-15 1 -8 8 -15 17 -15 20 0 3 7 3 15 0 8 -4 15 -13 15 -21z m242 -175 c-3 -58
1 -74 24 -113 33 -57 28 -102 -17 -139 -83 -71 -207 21 -158 117 16 31 50 57
77 57 12 0 22 3 23 8 0 4 3 32 5 62 5 70 10 82 31 78 15 -3 18 -13 15 -70z
m-5311 -84 c81 -41 71 -183 -15 -219 l-33 -14 -6 -362 c-4 -199 -7 -572 -7
-828 l0 -466 -43 -29 c-32 -23 -38 -25 -23 -8 13 15 15 22 6 22 -10 0 -9 5 3
18 16 17 17 89 17 835 l0 816 -29 15 c-61 32 -81 119 -41 184 36 58 101 72
171 36z m6137 11 c44 -18 82 -74 82 -122 0 -36 -37 -94 -68 -108 l-22 -10 0
-812 c0 -490 -4 -814 -9 -818 -5 -3 -13 0 -17 6 -4 8 -3 9 4 5 9 -5 12 11 12
55 0 71 -11 71 -21 1 -3 -26 -8 99 -10 278 -2 179 -4 348 -5 375 -1 28 -2 241
-3 475 l-1 426 -34 12 c-46 17 -76 66 -76 124 0 53 26 93 74 114 40 17 48 17
94 -1z m-6403 -470 c18 -17 25 -35 25 -63 0 -44 -31 -92 -60 -92 -17 0 -18
-30 -25 -585 -4 -322 -11 -588 -16 -591 -11 -6 -12 -114 -1 -113 25 4 42 -2
36 -13 -6 -10 -4 -10 7 0 16 15 29 16 29 1 0 -5 -4 -7 -10 -4 -6 4 -7 -1 -3
-11 6 -15 7 -15 18 -1 9 13 15 9 38 -28 17 -30 23 -47 15 -51 -7 -5 -8 -2 -3
6 5 9 4 11 -4 6 -6 -4 -9 -12 -5 -17 3 -6 -3 -21 -15 -33 -26 -28 -84 -32
-115 -10 -15 12 -16 15 -3 11 9 -4 17 -2 17 4 0 6 4 8 9 5 13 -8 72 5 66 15
-3 4 -1 10 5 14 6 4 7 11 4 17 -4 6 -2 8 3 5 6 -4 13 -1 16 7 4 9 0 13 -11 11
-9 -1 -25 6 -36 17 -10 11 -24 17 -32 14 -9 -3 -14 1 -15 12 0 10 -3 12 -6 4
-2 -6 -9 -10 -14 -6 -5 3 -9 1 -9 -5 0 -5 5 -13 10 -16 6 -4 8 -11 4 -16 -3
-5 -9 -7 -14 -4 -13 8 -25 -16 -23 -45 2 -21 0 -20 -9 7 -9 26 -7 37 10 65 20
33 20 43 15 682 l-6 648 -24 24 c-16 16 -23 35 -23 60 0 82 99 126 155 69z
m6666 15 c27 -15 52 -68 45 -95 -3 -13 -18 -38 -33 -55 l-26 -31 7 -320 c7
-290 -1 -802 -11 -771 -8 21 -22 13 -26 -15 -2 -16 -5 230 -6 545 -1 514 -3
572 -17 572 -27 0 -74 56 -74 88 0 46 43 92 87 92 19 0 43 -5 54 -10z m-5581
-284 c0 -9 -30 -14 -35 -6 -4 6 3 10 14 10 12 0 21 -2 21 -4z m4515 -176 c4
-6 -5 -10 -20 -10 -15 0 -24 4 -20 10 3 6 12 10 20 10 8 0 17 -4 20 -10z
m-4620 -10 c3 -5 -3 -10 -14 -10 -12 0 -21 5 -21 10 0 6 6 10 14 10 8 0 18 -4
21 -10z m-395 -120 c0 -18 -7 -20 -70 -20 l-70 0 0 -220 0 -220 26 -12 c30
-14 54 -56 54 -93 0 -40 -50 -85 -93 -85 -89 0 -130 99 -67 162 l30 30 0 239
0 239 95 0 c88 0 95 -1 95 -20z m5710 -767 c0 5 5 5 10 2 6 -4 8 -11 4 -16 -7
-12 -34 8 -34 25 0 6 5 4 10 -4 5 -8 10 -11 10 -7z m-5658 -73 c43 -12 93 -66
103 -109 15 -71 -63 -161 -141 -161 -44 0 -124 44 -124 68 0 8 -6 12 -13 9
-11 -4 -12 5 -6 41 4 26 8 52 8 59 2 35 76 93 131 102 3 1 22 -4 42 -9z m5403
-20 c38 -24 65 -69 65 -110 0 -19 7 -39 18 -47 9 -8 11 -12 5 -8 -23 11 -14
-8 20 -44 l32 -34 -43 33 -42 34 -34 -33 c-91 -88 -236 -26 -236 101 0 39 6
54 31 83 50 56 117 65 184 25z m554 -39 c-6 -2 -18 4 -27 13 -15 15 -15 15 10
4 15 -7 23 -15 17 -17z m69 -6 c-3 -3 -9 2 -12 12 -6 14 -5 15 5 6 7 -7 10
-15 7 -18z m-107 -32 c-12 -20 -14 -14 -5 12 4 9 9 14 11 11 3 -2 0 -13 -6
-23z m-44 8 c9 8 13 8 13 0 0 -6 -5 -11 -11 -11 -5 0 -7 -5 -4 -11 4 -6 -2 -5
-14 3 -12 7 -21 17 -21 22 0 6 5 5 12 -2 8 -8 15 -9 25 -1z m-6599 -66 c-3 -3
-9 2 -12 12 -6 14 -5 15 5 6 7 -7 10 -15 7 -18z m6647 5 c3 -6 -1 -7 -9 -4
-18 7 -21 14 -7 14 6 0 13 -4 16 -10z"/>
<path d="M3945 9213 c115 -62 267 -222 310 -326 7 -18 32 -120 55 -227 59
-275 84 -359 146 -489 39 -82 49 -111 36 -106 -75 32 -156 54 -202 57 l-55 3
-31 -92 c-17 -50 -62 -162 -99 -248 -37 -86 -63 -160 -59 -164 5 -4 55 -45
112 -90 56 -45 102 -86 102 -91 0 -5 -13 -31 -28 -57 -16 -27 -51 -91 -79
-143 -28 -52 -62 -115 -75 -140 -97 -174 -119 -224 -100 -232 12 -5 202 -208
202 -216 0 -4 -30 -7 -68 -8 -69 -1 -151 -32 -181 -68 -18 -21 -32 -20 -86 6
l-45 22 -58 -28 c-80 -39 -174 -108 -211 -154 -17 -22 -69 -97 -116 -168 -70
-105 -84 -130 -72 -139 12 -8 0 -34 -62 -145 -103 -182 -193 -373 -180 -381 7
-4 -5 -37 -30 -87 -72 -143 -212 -525 -255 -698 -20 -78 -21 -71 15 -79 16 -4
29 -10 27 -13 -34 -65 -86 -219 -76 -226 2 -2 30 -9 63 -16 74 -16 78 -19 67
-33 -29 -35 -86 -299 -69 -316 7 -7 3 -53 -12 -146 -13 -75 -20 -146 -18 -157
3 -11 1 -73 -5 -138 -11 -110 -13 -119 -37 -133 -61 -36 -309 -315 -472 -532
-117 -156 -449 -614 -473 -653 -6 -10 45 -12 261 -12 147 1 276 -2 284 -5 18
-7 21 -14 99 -210 28 -71 61 -149 73 -172 l22 -43 82 57 82 56 44 -34 c43 -33
45 -36 51 -99 3 -36 6 -98 6 -138 0 -65 2 -73 18 -68 47 14 112 18 112 7 0
-10 -91 -155 -221 -349 l-48 -73 623 1 623 1 104 -36 c233 -81 486 -141 714
-169 285 -35 670 -29 922 14 233 40 510 116 672 184 74 31 78 32 136 19 79
-16 1043 -18 1130 -2 184 34 338 178 401 373 58 182 37 446 -50 614 l-16 31
52 18 c43 14 102 18 314 23 l262 5 -140 190 c-77 105 -243 333 -370 507 -127
175 -254 342 -283 372 -52 55 -167 136 -191 136 -8 0 -16 10 -18 22 -8 37 -19
167 -21 243 -1 39 -9 98 -19 132 -29 108 -37 166 -25 173 7 5 5 26 -6 71 -22
90 -66 222 -76 234 -17 18 -9 23 56 36 51 10 65 17 65 30 0 10 -16 62 -35 116
-19 54 -35 101 -35 106 0 4 12 7 26 7 32 0 33 -1 -51 253 -72 218 -147 411
-205 527 -23 46 -35 80 -29 82 13 4 -89 214 -192 394 -38 66 -69 123 -69 127
0 3 7 7 15 9 25 5 -169 292 -242 358 -58 52 -174 120 -206 120 -8 0 -37 -10
-65 -21 -48 -20 -52 -20 -68 -5 -9 9 -39 29 -68 43 -40 21 -66 27 -123 27 -50
1 -69 4 -65 12 4 7 53 60 110 118 56 59 102 112 102 119 0 7 -30 64 -66 127
-36 63 -92 167 -125 230 -32 63 -68 132 -80 152 -22 37 -22 38 -3 59 24 27
194 159 205 159 4 0 -16 51 -46 113 -29 61 -77 176 -106 255 -45 120 -56 142
-73 142 -39 -1 -156 -29 -202 -49 -25 -11 -44 -17 -42 -13 89 172 133 303 201
608 25 111 55 221 67 245 52 102 180 231 285 288 53 28 28 27 -107 -4 -230
-52 -447 -195 -542 -358 -14 -23 -50 -136 -81 -252 -31 -115 -59 -216 -61
-224 -3 -9 -16 -1 -42 24 -56 55 -183 113 -281 127 -169 25 -351 -23 -448
-117 l-53 -51 -29 90 c-16 50 -46 154 -65 231 -23 85 -47 156 -63 180 -38 59
-159 175 -228 220 -107 70 -269 130 -405 149 l-45 6 30 -17z m2174 -192 c-13
-16 -50 -59 -81 -97 -86 -101 -129 -194 -187 -399 -28 -99 -63 -213 -77 -253
-24 -66 -28 -71 -40 -54 -15 21 -8 166 7 156 5 -3 9 5 9 17 0 31 66 221 104
299 54 111 143 236 214 299 37 34 68 61 71 61 2 0 -7 -13 -20 -29z m-1852 -53
c91 -95 145 -178 204 -307 68 -153 142 -413 124 -440 -3 -5 -13 -7 -24 -4 -20
5 -50 95 -115 339 -53 201 -99 287 -221 422 -79 86 -54 78 32 -10z m239 -212
c14 -26 53 -130 86 -230 33 -99 81 -221 106 -270 53 -101 142 -203 218 -252
132 -84 287 -97 420 -35 106 50 225 176 292 309 28 56 65 148 82 205 41 136
69 213 96 267 43 85 51 83 22 -6 -16 -49 -38 -127 -49 -174 -84 -368 -268
-608 -510 -665 -187 -44 -348 10 -493 166 -117 127 -182 267 -252 541 -19 78
-42 157 -50 176 -28 69 -11 52 32 -32z m828 -356 c32 -12 70 -34 85 -49 15
-14 18 -19 8 -11 -19 14 -19 13 -12 -20 l7 -35 -22 28 c-25 32 -46 37 -30 6 7
-11 9 -23 7 -26 -3 -2 -10 5 -17 16 -6 12 -15 19 -20 16 -5 -3 -11 -1 -15 5
-3 5 -13 10 -22 10 -15 0 -15 -12 3 -55 6 -14 -5 -9 -36 18 -51 44 -76 50 -36
8 33 -34 57 -108 54 -170 -1 -41 -2 -42 -5 -11 -5 41 -43 94 -85 120 -59 36
-139 -8 -154 -85 -10 -58 -22 -30 -12 31 10 62 20 88 51 122 31 34 7 26 -31
-10 -35 -33 -39 -28 -17 25 11 27 -13 21 -46 -12 -29 -30 -38 -26 -19 10 14
26 4 24 -27 -6 -31 -28 -45 -25 -18 5 10 11 16 22 13 25 -3 3 -11 -1 -18 -10
-7 -8 -17 -15 -23 -15 -21 0 30 43 73 62 73 31 110 37 210 34 68 -3 112 -10
154 -26z m-98 -228 c15 -55 -69 -102 -122 -67 -18 12 -24 24 -24 53 1 44 17
69 50 74 32 5 89 -30 96 -60z m-199 -84 c-3 -8 -6 -5 -6 6 -1 11 2 17 5 13 3
-3 4 -12 1 -19z m-371 -98 c88 -167 265 -262 494 -263 215 -1 374 80 480 244
22 34 40 57 40 50 0 -20 -41 -94 -76 -138 -210 -258 -739 -239 -920 34 -32 48
-71 143 -59 143 2 0 21 -32 41 -70z m-291 15 c29 -9 61 -25 71 -37 11 -12 14
-18 8 -15 -16 9 -25 -18 -11 -32 16 -16 2 -24 -22 -12 -18 10 -20 9 -14 -6 3
-10 17 -30 31 -45 36 -39 20 -35 -41 10 -29 21 -62 44 -74 51 -23 12 -30 50
-17 85 7 19 4 19 69 1z m315 -5 c6 -11 8 -20 6 -20 -3 0 -10 9 -16 20 -6 11
-8 20 -6 20 3 0 10 -9 16 -20z m1328 -17 c14 -44 7 -53 -71 -98 l-48 -27 7 27
c5 22 2 31 -20 50 -25 21 -25 23 -8 38 19 18 86 45 113 46 10 1 20 -13 27 -36z
m-378 24 c0 -2 -10 -12 -22 -23 l-23 -19 19 23 c18 21 26 27 26 19z m-50 -50
c0 -2 -10 -12 -22 -23 l-23 -19 19 23 c18 21 26 27 26 19z m-816 -43 c7 -19 2
-18 -19 6 -16 17 -16 20 -3 15 9 -4 19 -13 22 -21z m1276 -21 c0 -12 -33 -38
-92 -75 -137 -84 -130 -63 16 47 64 49 76 54 76 28z m-1726 -23 c46 -31 124
-109 140 -138 5 -9 -5 -4 -22 12 -17 16 -63 52 -103 80 -69 49 -94 76 -69 76
6 0 31 -13 54 -30z m1784 -103 c23 -50 42 -96 42 -102 0 -5 -17 -21 -38 -35
-20 -14 -80 -63 -132 -110 -106 -96 -107 -93 -9 22 38 45 68 87 66 93 -7 19
-33 16 -71 -10 -51 -35 -54 -31 -12 15 39 43 44 55 22 47 -8 -3 -17 -1 -19 6
-4 13 21 38 70 68 18 11 33 25 33 31 0 6 -10 4 -22 -4 -51 -33 -138 -72 -138
-62 0 5 154 134 160 134 3 0 24 -42 48 -93z m-1791 39 c32 -24 66 -53 76 -64
18 -20 18 -20 -5 -17 -32 4 -58 16 -58 26 0 5 -5 9 -11 9 -6 0 -24 9 -41 21
-16 12 -31 19 -34 16 -3 -3 19 -22 48 -42 35 -24 58 -49 65 -69 5 -17 14 -40
18 -51 7 -16 4 -15 -13 5 -17 19 -24 22 -30 12 -5 -8 -20 -11 -35 -8 -16 3
-27 0 -27 -6 0 -6 31 -47 68 -92 96 -114 97 -122 6 -37 -43 41 -100 90 -126
110 -27 19 -48 41 -48 48 0 8 13 39 29 71 15 31 31 69 35 85 3 15 10 27 15 27
5 0 35 -20 68 -44z m1573 41 c0 -2 -10 -12 -22 -23 l-23 -19 19 23 c18 21 26
27 26 19z m-320 -218 c0 -26 -55 -51 -180 -80 -123 -28 -329 -31 -440 -6 -96
22 -210 68 -210 86 0 16 11 14 195 -23 165 -34 277 -36 423 -5 59 12 121 28
137 35 46 20 75 18 75 -7z m-477 -26 c-7 -2 -19 -2 -25 0 -7 3 -2 5 12 5 14 0
19 -2 13 -5z m582 -12 c-6 -10 -153 -63 -255 -92 -117 -33 -355 -38 -477 -10
-144 33 -360 111 -306 111 6 0 72 -16 147 -35 214 -54 326 -68 454 -55 94 9
332 62 402 88 26 10 44 6 35 -7z m-442 2 c-24 -2 -62 -2 -85 0 -24 2 -5 4 42
4 47 0 66 -2 43 -4z m-260 -169 c26 -8 10 -24 -24 -24 -32 0 -89 25 -89 39 0
8 71 -2 113 -15z m497 21 c0 -3 -15 -14 -32 -25 -35 -21 -83 -26 -107 -11 -12
8 -10 11 10 15 13 3 42 9 64 14 49 12 65 14 65 7z m116 -97 c-10 -51 -32 -76
-96 -108 -51 -26 -60 -34 -56 -53 3 -12 7 -53 11 -92 4 -58 3 -67 -7 -51 -7
10 -21 28 -30 40 -17 20 -17 20 -3 -16 24 -61 19 -134 -15 -206 -16 -34 -33
-61 -39 -60 -5 2 -8 0 -7 -3 0 -4 -8 -17 -19 -29 -17 -18 -28 -21 -68 -17 -30
2 -56 12 -70 26 -27 24 -43 27 -50 7 -7 -17 -75 -26 -102 -13 -11 5 -33 21
-49 36 -21 19 -27 21 -23 9 9 -25 0 -22 -14 3 -8 15 -8 19 0 15 16 -10 14 7
-4 30 -15 19 -15 19 -10 -1 3 -11 -2 -4 -12 15 -19 37 -24 147 -11 210 6 24 0
16 -17 -25 l-26 -60 5 85 c2 47 1 95 -3 107 -3 13 -30 37 -61 55 -41 25 -58
42 -69 71 -7 20 -12 40 -9 42 3 3 39 -15 80 -40 80 -49 170 -71 217 -53 23 8
24 8 18 -34 -4 -24 -9 -58 -13 -75 -6 -29 -4 -33 14 -33 11 0 35 -16 53 -35
19 -19 40 -35 47 -35 8 0 32 16 55 35 22 19 52 35 65 35 21 0 23 3 17 23 -4
12 -9 48 -12 79 l-5 58 33 -7 c19 -3 35 -9 37 -13 9 -22 148 35 207 84 40 34
49 32 41 -6z m-1231 12 c4 -6 25 -20 48 -31 23 -12 44 -23 45 -24 3 -3 -17
-70 -24 -83 -5 -8 -134 41 -134 51 0 7 9 31 20 55 19 42 33 52 45 32z m1659
-39 l25 -49 -42 -16 c-55 -21 -56 -21 -54 12 2 21 -2 27 -18 27 -17 0 -20 -6
-19 -37 1 -21 -2 -38 -6 -38 -12 0 -33 84 -22 88 6 2 28 16 49 32 21 16 44 29
50 29 7 1 24 -21 37 -48z m-816 -13 c11 -29 23 -72 27 -95 6 -41 6 -42 -27
-48 -61 -12 -103 -3 -106 22 -4 27 24 142 39 160 24 28 47 14 67 -39z m-848
-104 c51 -19 67 -31 57 -40 -4 -4 -40 5 -82 21 -68 25 -74 29 -64 47 9 18 12
18 27 5 9 -9 37 -23 62 -33z m1717 9 c-9 -8 -141 -52 -146 -48 -8 8 12 23 70
53 47 25 55 27 66 14 7 -9 11 -17 10 -19z m-1776 -139 c38 -20 69 -40 69 -45
0 -12 -17 -11 -25 1 -13 22 -50 10 -63 -20 l-13 -29 -42 26 c-23 15 -44 29
-46 30 -8 6 29 73 40 73 6 0 42 -16 80 -36z m1849 -4 l21 -40 -23 -9 c-13 -5
-40 -16 -60 -24 -36 -15 -38 -15 -38 3 0 10 5 22 10 25 6 3 10 11 10 16 0 16
-43 0 -60 -23 -17 -20 -30 -15 -30 12 0 15 109 78 137 79 7 1 22 -17 33 -39z
m-1315 -82 c12 -51 25 -104 29 -118 8 -24 7 -24 -7 -5 -8 11 -17 32 -21 48 -3
15 -11 27 -16 27 -5 0 -7 7 -4 15 3 8 1 29 -4 47 -18 60 -24 104 -11 91 6 -6
21 -53 34 -105z m690 -12 c-15 -52 -45 -115 -45 -94 0 19 31 148 41 173 12 29
13 30 17 6 2 -13 -4 -51 -13 -85z m-1315 19 c44 -28 44 -28 30 -56 -9 -16 -15
-17 -31 -8 -37 19 -38 5 -4 -51 40 -64 63 -114 71 -149 6 -25 5 -25 -15 4 -11
17 -52 62 -91 100 l-70 71 31 57 c17 31 33 57 35 57 2 0 22 -11 44 -25z m2000
-30 l32 -56 -88 -93 c-49 -50 -91 -91 -93 -89 -2 1 10 24 27 50 17 26 34 62
38 78 4 17 14 39 23 49 9 11 10 16 4 12 -7 -4 -13 -3 -13 3 0 5 6 11 13 14 6
2 9 7 6 11 -4 4 -25 -1 -48 -10 -23 -9 -44 -15 -46 -12 -12 12 78 95 107 97 3
1 21 -24 38 -54z m-1868 18 c-3 -18 -7 -22 -10 -13 -3 8 -12 20 -21 27 -14 11
-12 12 10 13 23 0 26 -3 21 -27z m465 -15 c-3 -8 -6 -5 -6 6 -1 11 2 17 5 13
3 -3 4 -12 1 -19z m1232 -42 c15 -17 15 -18 -4 -15 -14 3 -21 13 -22 34 -1 17
0 23 4 15 3 -8 13 -23 22 -34z m-1729 -9 c0 -26 -15 -12 -25 23 -7 22 -6 23 9
11 9 -7 16 -23 16 -34z m17 11 c-3 -8 -6 -5 -6 6 -1 11 2 17 5 13 3 -3 4 -12
1 -19z m368 -251 c49 -96 104 -192 247 -430 16 -27 24 -46 18 -42 -16 10 -193
244 -230 303 -35 57 -45 66 -30 26 6 -14 8 -30 4 -35 -3 -5 -1 -9 3 -9 13 0
10 -63 -3 -67 -14 -5 -80 121 -88 170 -10 53 5 262 15 224 4 -16 33 -79 64
-140z m1034 -18 c1 -80 -10 -114 -66 -201 -45 -71 -68 -94 -31 -33 21 37 16
63 -6 32 -7 -9 -18 -17 -25 -17 -13 0 -15 32 -2 46 11 11 42 84 36 84 -11 0
-65 -122 -59 -132 4 -6 3 -8 -3 -5 -5 3 -34 -25 -63 -64 -73 -96 -112 -139
-103 -114 4 11 54 99 112 195 103 173 172 307 188 365 7 27 8 24 14 -30 4 -33
7 -90 8 -126z m-154 61 c-46 -76 -83 -120 -100 -120 -8 0 -20 -6 -27 -12 -17
-16 -89 -50 -95 -45 -2 3 40 44 93 93 54 49 111 103 128 121 17 18 32 30 34
28 2 -2 -12 -31 -33 -65z m-625 -138 l55 -53 -58 25 c-100 43 -130 72 -192
181 l-28 50 83 -75 c46 -41 109 -99 140 -128z m71 181 c13 -17 13 -17 -6 -3
-11 8 -22 16 -24 17 -2 2 0 3 6 3 6 0 17 -8 24 -17z m923 -267 c-20 -53 -39
-95 -41 -93 -2 2 4 23 12 47 8 23 12 47 8 53 -3 5 -2 7 4 4 5 -3 18 17 27 44
10 27 20 48 22 46 3 -2 -12 -47 -32 -101z m-1531 60 c20 -5 27 -11 23 -22 -3
-8 -2 -12 4 -9 11 7 32 -33 56 -107 20 -64 12 -85 -17 -49 l-19 23 -1 -28 -1
-29 -10 30 c-6 17 -26 69 -44 117 -33 85 -41 114 -26 92 4 -6 20 -14 35 -18z
m1494 -64 c-6 -23 -14 -42 -18 -42 -4 0 -1 20 8 46 19 56 26 54 10 -4z m-2034
-23 c68 -35 239 -181 226 -193 -3 -3 -58 19 -123 49 -65 30 -122 53 -126 50
-4 -2 -42 7 -85 22 l-78 26 64 33 c35 18 68 33 72 34 4 0 27 -10 50 -21z
m1992 -24 c-8 -22 -14 -32 -15 -23 0 20 19 72 25 67 2 -3 -2 -23 -10 -44z
m725 14 l65 -31 -35 -13 c-19 -7 -81 -36 -137 -64 -61 -30 -110 -48 -120 -45
-14 5 -15 4 -4 -4 11 -8 7 -13 -18 -27 -18 -9 -35 -14 -38 -12 -2 3 5 8 16 12
12 3 21 11 21 16 0 11 2 11 -40 -2 -93 -28 -98 -21 -25 32 51 37 52 49 3 26
-18 -8 -51 -22 -73 -32 -22 -9 -58 -33 -80 -53 -69 -64 -101 -90 -85 -67 8 11
26 34 41 50 15 17 44 55 65 86 38 55 126 139 145 139 12 0 6 -11 -30 -59 l-26
-35 50 27 c28 14 64 31 80 37 l30 11 -30 -33 c-16 -18 -21 -25 -10 -16 35 29
138 88 154 88 9 0 45 -14 81 -31z m-2417 1 c40 -32 115 -137 126 -178 20 -72
-1 -54 -91 79 -36 52 -68 100 -72 107 -11 18 8 14 37 -8z m-69 -23 c113 -120
226 -257 211 -257 -4 0 -43 32 -86 70 -44 39 -103 82 -132 96 -62 31 -147 86
-147 96 0 4 34 -9 75 -27 59 -27 74 -31 66 -17 -5 9 -19 26 -30 36 -12 11 -21
23 -21 28 0 19 34 6 64 -25z m2086 16 c0 -16 -66 -134 -103 -182 -10 -14 -24
-26 -32 -27 -11 -2 -10 5 2 35 41 99 101 191 124 191 5 0 9 -8 9 -17z m-1619
-21 c9 2 14 -5 13 -19 0 -12 3 -20 6 -18 11 7 43 -72 35 -86 -5 -7 -4 -10 2
-6 6 4 13 1 16 -7 4 -9 0 -13 -10 -12 -14 2 -93 138 -93 161 0 6 4 4 9 -3 4
-7 14 -12 22 -10z m161 -20 c-7 -2 -9 -9 -6 -15 5 -9 4 -9 -6 0 -15 13 -4 37
13 26 8 -5 8 -8 -1 -11z m1015 -22 c-6 -25 8 -26 22 -2 14 23 14 9 -1 -23 -6
-14 -15 -25 -20 -25 -4 0 -7 -3 -7 -7 3 -16 -2 -29 -20 -52 l-18 -23 2 28 c2
30 34 124 43 124 2 0 2 -9 -1 -20z m-1827 -56 c0 -2 -9 0 -20 6 -11 6 -20 13
-20 16 0 2 9 0 20 -6 11 -6 20 -13 20 -16z m-200 -38 c115 -37 120 -43 20 -21
-69 15 -97 18 -88 10 3 -3 44 -14 91 -24 115 -25 147 -40 147 -68 0 -13 -6
-23 -12 -23 -9 0 -8 -4 2 -11 17 -12 -4 -10 -212 23 l-137 21 26 51 c27 55 42
76 52 76 3 0 53 -16 111 -34z m3043 2 c14 -18 32 -47 40 -64 l16 -30 -132 -22
c-164 -28 -175 -28 -211 3 l-29 25 37 15 c20 9 77 25 127 36 50 12 88 23 85
26 -6 6 -140 -21 -180 -37 -16 -6 -31 -9 -33 -7 -5 6 217 84 244 86 7 1 23
-14 36 -31z m-2688 -38 c3 -6 -1 -7 -9 -4 -18 7 -21 14 -7 14 6 0 13 -4 16
-10z m585 -1 c0 -15 -18 -19 -23 -6 -3 8 1 14 9 14 8 0 14 -4 14 -8z m1634
-170 c31 -35 54 -64 52 -67 -5 -5 -156 118 -156 128 0 14 13 19 30 10 10 -5
43 -37 74 -71z m-2684 56 c30 -4 108 -18 173 -32 66 -14 130 -23 143 -20 30 5
30 3 -1 -17 -23 -15 -34 -15 -172 9 -136 23 -233 32 -221 20 3 -3 74 -23 159
-45 193 -49 199 -51 199 -60 0 -4 -73 7 -162 25 -90 18 -180 36 -200 39 -53 9
-49 -10 5 -24 107 -28 192 -53 197 -57 3 -3 -28 -1 -67 2 -63 7 -73 5 -73 -8
0 -9 5 -19 11 -22 6 -4 8 -13 5 -21 -3 -8 0 -11 10 -7 7 3 14 0 14 -6 0 -6 8
-11 18 -12 14 0 14 -2 -3 -9 -19 -8 -19 -9 -1 -9 11 -1 17 -3 15 -6 -8 -7
-269 33 -269 41 0 2 23 44 50 94 28 50 50 94 50 99 0 18 32 42 49 37 9 -2 41
-8 71 -11z m535 -2 c0 -13 -146 -125 -154 -117 -3 2 24 34 60 70 58 59 94 77
94 47z m2695 -6 c0 -7 23 -53 51 -102 28 -49 53 -94 56 -101 3 -8 -14 -16 -49
-22 -96 -18 -220 -33 -225 -28 -3 3 15 15 40 27 38 19 43 24 32 36 -8 7 -26
13 -42 14 -27 1 -27 1 5 9 59 14 48 21 -21 14 -37 -4 -67 -4 -67 -1 0 3 44 16
98 28 105 24 132 34 132 50 0 7 -7 8 -17 4 -10 -4 -88 -20 -173 -35 -85 -16
-170 -32 -189 -36 -23 -5 -32 -4 -28 3 4 6 31 16 59 23 208 47 308 73 308 82
0 11 -62 4 -245 -27 -124 -22 -131 -22 -148 -5 -18 16 -16 17 35 23 29 4 107
18 173 31 140 28 215 32 215 13z m-2638 -59 c3 -7 -7 -22 -21 -34 -34 -28
-111 -67 -119 -60 -8 9 29 46 77 78 50 31 58 33 63 16z m1984 -10 c44 -32 94
-81 94 -90 0 -13 -75 29 -115 63 -55 48 -37 71 21 27z m-1922 -66 c12 -19
-126 -114 -142 -98 -3 3 17 28 45 56 46 46 84 62 97 42z m1313 -8 l93 -7 10
-36 c13 -48 13 -102 0 -81 -5 8 -10 11 -10 5 0 -5 -10 11 -22 38 -26 59 -48
62 -48 7 0 -37 -11 -52 -25 -31 -3 6 -17 4 -32 -4 -30 -16 -43 -7 -43 31 0 20
-17 44 -32 44 -4 0 -8 -8 -8 -18 0 -18 -18 -42 -31 -42 -4 0 -10 8 -12 18 -4
13 -5 12 -6 -5 0 -12 5 -23 12 -26 6 -3 -12 -4 -42 -3 -36 1 -56 -3 -58 -11
-9 -27 -32 -12 -38 25 -9 52 -13 62 -25 62 -5 0 -10 -22 -10 -50 l0 -50 -46 0
c-25 0 -55 5 -67 11 -16 9 -22 9 -25 0 -9 -28 -22 -6 -22 39 0 39 -3 50 -16
50 -13 0 -15 -10 -12 -53 3 -49 1 -53 -19 -55 -17 -1 -21 2 -16 15 5 12 2 15
-10 10 -9 -3 -19 -2 -22 4 -7 11 -37 8 -46 -4 -4 -5 -9 3 -13 17 -6 23 -9 25
-27 16 -18 -10 -22 -7 -32 19 -15 41 -33 39 -41 -3 -7 -37 -41 -66 -76 -66
-19 0 -21 4 -15 30 14 64 -21 96 -43 38 -7 -18 -21 -44 -33 -58 l-20 -25 6 65
c7 71 13 79 65 81 19 1 85 5 145 9 118 9 561 5 712 -6z m569 -10 c39 -26 73
-62 74 -77 0 -11 -70 20 -107 49 -34 26 -44 54 -19 54 7 0 31 -12 52 -26z
m-1563 -31 c-10 -62 -24 -85 -18 -30 5 46 11 67 20 67 2 0 1 -17 -2 -37z
m1211 -65 c7 -5 5 -8 -5 -8 -19 0 -29 20 -28 53 0 18 3 17 11 -8 6 -16 16 -33
22 -37z m-1484 0 c-29 -23 -120 -71 -126 -66 -7 8 60 80 90 99 28 17 32 17 46
3 13 -14 12 -17 -10 -36z m1772 23 c44 -28 86 -76 76 -86 -7 -7 -98 42 -125
67 -19 18 -22 48 -4 48 4 0 28 -13 53 -29z m-1152 -15 c0 -3 -4 -8 -10 -11 -5
-3 -10 -1 -10 4 0 6 5 11 10 11 6 0 10 -2 10 -4z m2065 -35 c8 -17 12 -32 7
-34 -15 -9 -502 -100 -507 -95 -4 4 256 61 340 74 22 4 47 10 55 15 30 16 -99
-4 -324 -52 -126 -27 -232 -47 -234 -44 -3 2 1 7 9 9 143 46 379 105 508 127
63 10 117 21 119 24 9 8 11 6 27 -24z m-3519 4 c93 -15 451 -103 507 -124 29
-11 38 -26 10 -17 -10 3 -58 14 -108 25 -49 10 -142 30 -205 44 -168 37 -291
59 -297 54 -5 -5 39 -16 302 -73 166 -35 295 -67 245 -60 -82 11 -576 110
-583 116 -10 9 9 50 23 50 6 0 53 -7 106 -15z m2550 -41 c48 -32 82 -69 72
-79 -2 -2 -21 4 -43 14 -55 25 -105 69 -98 86 7 20 7 20 69 -21z m-1636 12 c0
-14 -124 -96 -145 -96 -15 0 21 43 62 75 47 36 83 45 83 21z m1561 -85 c43
-27 94 -79 85 -88 -15 -15 -146 72 -146 97 0 26 8 25 61 -9z m1119 -31 c16
-33 30 -63 30 -68 0 -5 -48 -19 -107 -32 -60 -12 -189 -40 -288 -61 -175 -37
-270 -54 -250 -44 6 2 80 24 165 49 145 42 306 104 235 91 -25 -4 -27 -3 -12
6 10 6 26 9 35 7 9 -3 31 2 47 9 30 14 30 14 -16 9 -29 -3 -51 -1 -59 7 -10 9
-13 9 -17 -1 -3 -8 -10 -6 -22 9 -15 19 -21 20 -56 10 -22 -6 -49 -11 -60 -10
-12 0 -6 5 15 11 38 11 297 66 317 67 7 1 26 -26 43 -59z m-3608 30 c115 -20
231 -47 213 -49 -5 0 -48 6 -94 14 -47 8 -87 13 -89 10 -3 -3 -1 -5 4 -5 5 -1
32 -7 59 -15 49 -13 49 -14 15 -16 -19 -1 -39 0 -45 1 -28 7 -40 4 -40 -10 0
-8 -4 -20 -7 -26 -12 -19 127 -68 367 -130 109 -28 43 -21 -110 11 -254 55
-490 107 -493 110 -2 2 11 30 27 64 37 71 29 70 193 41z m988 8 c0 -18 -135
-106 -146 -96 -7 8 29 50 69 79 42 30 77 38 77 17z m1243 -43 c17 -7 17 -8 0
-27 -10 -11 -23 -32 -29 -46 l-11 -27 -12 43 c-15 52 -31 55 -32 5 -1 -21 -4
-49 -8 -63 -7 -25 -8 -24 -15 8 -4 17 -11 32 -16 32 -5 0 -12 9 -15 20 -9 27
-23 25 -31 -5 -3 -14 -10 -25 -15 -25 -14 0 -11 48 4 53 6 2 0 4 -15 4 -25 0
-28 -3 -28 -34 0 -23 -4 -33 -12 -30 -7 2 -25 1 -39 -4 -16 -4 -31 -3 -37 3
-7 7 -17 3 -30 -10 -14 -14 -22 -17 -26 -9 -2 7 -5 5 -5 -4 -1 -9 -9 -19 -19
-21 -16 -5 -19 2 -21 45 -2 56 -8 70 -22 62 -5 -4 -9 -31 -9 -60 0 -53 -1 -55
-27 -53 -16 1 -34 6 -40 11 -9 6 -13 6 -13 -2 0 -6 -4 -11 -10 -11 -5 0 -10 7
-10 15 0 8 -4 15 -10 15 -5 0 -7 -6 -4 -14 3 -9 -4 -15 -20 -18 -24 -5 -25 -3
-28 55 -4 81 -23 85 -32 7 -4 -33 -11 -60 -16 -60 -6 0 -10 8 -10 18 0 10 -6
19 -12 19 -7 1 -33 5 -58 10 -25 5 -57 9 -72 8 -25 -2 -28 1 -28 32 0 26 -4
33 -20 33 -15 0 -20 -7 -20 -24 0 -14 -5 -28 -12 -32 -6 -4 -8 -3 -5 4 5 6 -2
6 -18 -1 -13 -7 -29 -21 -34 -32 -8 -16 -10 -13 -10 22 -1 23 -4 48 -7 57 -10
25 -24 19 -24 -11 0 -16 -5 -35 -10 -43 -7 -12 -12 -8 -21 18 -6 18 -20 37
-30 43 -40 21 -15 29 104 32 187 6 920 -1 940 -8z m-1706 -11 c-3 -3 -12 -4
-19 -1 -8 3 -5 6 6 6 11 1 17 -2 13 -5z m2813 -4 c0 -5 -7 -10 -15 -10 -8 0
-15 5 -15 10 0 6 7 10 15 10 8 0 15 -4 15 -10z m-2290 -16 c0 -18 -13 -31 -79
-75 -64 -42 -79 -37 -40 12 50 64 119 100 119 63z m1391 -20 c48 -35 76 -70
65 -81 -6 -6 -119 61 -136 82 -12 15 -6 35 12 35 6 0 32 -16 59 -36z m-2391
-14 c0 -5 -5 -10 -11 -10 -5 0 -7 5 -4 10 3 6 8 10 11 10 2 0 4 -4 4 -10z
m3305 -10 c-3 -5 -14 -10 -23 -9 -14 0 -13 2 3 9 27 11 27 11 20 0z m-2242
-34 c4 -9 -19 -30 -62 -60 -37 -25 -71 -46 -75 -46 -14 0 30 63 64 91 37 31
65 37 73 15z m1263 -16 c41 -29 86 -90 65 -90 -9 0 -107 64 -130 85 -14 13 -8
35 10 35 6 0 30 -14 55 -30z m1308 -81 c14 -33 26 -62 26 -64 0 -5 -130 -33
-191 -40 -50 -6 -59 -4 -77 15 -11 12 -19 29 -17 38 2 9 4 20 4 25 1 4 11 7
24 8 12 0 38 7 57 15 l35 14 -55 -4 c-75 -7 -45 7 60 28 46 9 86 19 89 21 11
12 20 1 45 -56z m-3823 36 c82 -17 106 -31 41 -22 -62 8 -43 -8 28 -23 33 -7
63 -17 66 -21 7 -12 -18 -49 -33 -49 -17 0 -17 -17 0 -23 23 -10 -49 -7 -109
4 -93 16 -134 29 -134 40 0 22 45 109 57 109 6 0 44 -7 84 -15z m1316 -12 c4
-11 -136 -117 -144 -109 -9 9 18 45 64 85 45 41 72 48 80 24z m1142 -23 c47
-37 78 -76 68 -86 -3 -3 -94 53 -141 87 -11 8 -1 39 13 39 5 0 32 -18 60 -40z
m-1084 -51 c0 -14 -135 -122 -143 -114 -10 9 42 76 81 105 42 31 62 34 62 9z
m1023 -35 c29 -25 57 -55 63 -66 10 -18 7 -18 -38 6 -64 36 -117 82 -109 95
12 19 30 12 84 -35z m-1436 -6 c-7 -7 -12 -30 -13 -52 l-1 -41 -9 44 c-9 49
-6 61 19 61 12 0 13 -3 4 -12z m1739 -65 c-10 -17 -10 -17 -11 0 0 9 -4 17
-10 17 -16 0 -12 21 8 43 17 19 17 19 20 -12 2 -17 -1 -39 -7 -48z m73 68 c3
-5 -1 -22 -9 -37 -13 -26 -15 -27 -15 -7 0 12 -3 28 -6 37 -7 17 20 23 30 7z
m-1746 -32 c13 -23 13 -23 -2 -4 -16 19 -17 19 -14 -4 2 -13 -3 -26 -9 -28 -9
-3 -13 7 -13 32 0 41 15 43 38 4z m411 8 c8 -10 3 -21 -22 -44 -38 -36 -101
-83 -111 -83 -16 0 36 80 71 108 44 36 47 37 62 19z m579 6 c75 -4 111 -10
109 -17 -2 -6 -24 -11 -48 -11 -40 0 -44 -2 -42 -22 2 -13 -2 -23 -7 -23 -6 0
-10 12 -10 26 0 14 -4 23 -10 19 -5 -3 -10 -15 -10 -26 0 -10 -4 -19 -9 -19
-5 0 -11 -8 -14 -17 -2 -10 -8 1 -12 25 -9 48 -31 56 -41 15 -3 -16 -7 -32 -8
-38 -1 -5 -9 5 -17 23 -19 43 -27 40 -31 -10 l-3 -43 -12 45 -11 45 -2 -40
c-2 -25 -4 -32 -7 -17 -4 22 -23 32 -23 12 0 -5 -7 -10 -15 -10 -10 0 -15 10
-15 30 0 47 -27 38 -38 -12 -9 -41 -10 -41 -11 -10 -1 39 -18 43 -24 5 -4 -28
-4 -27 -12 7 -7 29 -9 31 -16 15 -7 -19 -8 -19 -15 3 -7 23 -47 32 -59 12 -3
-5 -14 -2 -26 8 -19 16 -15 17 93 23 191 9 229 9 346 2z m306 -38 c43 -34 87
-95 67 -95 -7 0 -111 72 -140 96 -6 5 8 34 17 34 5 0 30 -16 56 -35z m-2309
-10 c83 -15 211 -40 285 -57 74 -17 151 -34 170 -38 80 -17 -18 -9 -162 14
-222 36 -479 69 -485 62 -8 -7 1 -10 137 -40 159 -36 282 -66 242 -61 -19 3
-104 14 -190 25 -87 12 -167 23 -179 27 -14 3 -23 1 -23 -6 0 -6 1 -11 3 -11
18 0 302 -62 306 -67 3 -3 -12 -3 -34 1 -22 3 -60 9 -85 11 l-45 5 48 -18 c40
-14 46 -20 35 -31 -11 -12 -10 -13 5 -8 11 4 16 3 12 -3 -6 -9 -47 -7 -113 5
-23 4 -21 2 8 -11 37 -18 430 -118 503 -129 39 -6 44 -4 54 17 11 21 12 21 12
3 1 -48 17 -49 -349 15 -220 38 -269 44 -250 30 12 -9 12 -10 -5 -6 -11 3 -58
12 -104 20 -45 8 -85 17 -88 20 -5 5 20 77 69 193 26 63 33 72 51 68 12 -2 90
-16 172 -30z m3876 13 c28 -52 98 -243 91 -249 -6 -6 -95 -21 -289 -48 -29 -4
-50 -4 -47 1 3 4 20 8 37 9 18 1 43 5 57 9 45 14 -8 11 -85 -5 -98 -21 -413
-75 -436 -75 -22 0 -36 31 -44 93 -4 38 -4 37 9 -11 7 -30 18 -58 24 -64 7 -7
52 -1 149 22 219 51 445 110 462 121 13 8 12 9 -4 5 -31 -8 -166 -36 -173 -36
-23 1 30 20 70 25 26 4 51 12 54 17 5 7 -2 9 -20 4 -14 -3 -38 -8 -53 -11
l-28 -5 30 14 c17 9 38 15 47 16 9 0 20 4 23 10 7 11 -49 3 -77 -11 -24 -13
-28 -11 -21 9 5 14 4 15 -8 6 -8 -7 -23 -8 -34 -4 -22 8 -15 10 80 25 83 13
175 37 175 45 0 9 -8 8 -195 -21 -66 -10 -131 -19 -145 -18 -34 1 81 32 215
59 103 20 156 40 109 40 -11 0 -163 -20 -338 -45 -175 -25 -320 -44 -322 -42
-10 10 575 130 658 136 10 0 23 -9 29 -21z m-416 3 c-11 -10 -314 -75 -321
-69 -3 4 175 47 276 67 25 5 47 9 50 10 2 1 0 -3 -5 -8z m-3030 -46 c50 -13
84 -24 76 -24 -20 -1 -231 50 -231 55 0 7 49 -3 155 -31z m152 -20 c-4 -9 -17
-14 -34 -14 l-28 2 28 4 c16 3 27 11 27 20 0 9 3 14 6 10 4 -3 4 -13 1 -22z
m910 8 c7 -18 -47 -72 -105 -106 l-31 -18 10 31 c10 28 93 110 112 110 4 0 11
-8 14 -17z m792 -68 c33 -49 25 -59 -21 -26 -91 63 -104 77 -89 95 12 14 17
13 51 -11 21 -15 47 -41 59 -58z m836 55 c3 -5 1 -10 -4 -10 -6 0 -11 5 -11
10 0 6 2 10 4 10 3 0 8 -4 11 -10z m-2598 -56 c-3 -3 -12 -4 -19 -1 -8 3 -5 6
6 6 11 1 17 -2 13 -5z m1050 -11 c4 -11 -86 -90 -130 -114 -17 -10 -17 -9 -2
21 9 17 35 49 57 71 40 39 67 47 75 22z m596 -14 c34 -28 87 -109 71 -109 -12
0 -133 94 -139 107 -6 18 2 33 18 33 7 0 29 -14 50 -31z m-1031 -84 c-4 -43
-21 -64 -23 -27 0 14 -2 14 -9 -3 -7 -17 -9 -16 -10 10 -1 17 -4 24 -7 17 -4
-10 -8 -10 -19 -1 -12 9 -14 5 -15 -22 l-2 -34 -10 38 c-10 36 -27 51 -27 24
0 -8 -9 -22 -20 -32 -20 -18 -20 -17 -20 18 0 25 -5 37 -14 37 -15 0 -26 -21
-26 -52 0 -20 -1 -21 -20 -3 -11 10 -20 24 -20 32 0 7 -7 13 -17 13 -9 0 -14
3 -10 6 9 10 111 21 197 23 l75 1 -3 -45z m505 21 c-4 -13 -128 -116 -140
-116 -15 0 28 62 70 101 27 25 48 36 58 33 9 -4 14 -12 12 -18z m474 -33 c31
-33 64 -83 55 -83 -10 0 -77 46 -115 78 -24 20 -32 34 -28 46 6 15 9 15 34 2
16 -8 40 -27 54 -43z m679 38 c22 -6 27 -9 14 -10 -12 -1 -33 -12 -47 -26
l-25 -26 -7 31 c-10 46 -35 39 -35 -10 0 -22 -4 -40 -10 -40 -5 0 -10 7 -10
16 0 10 -6 14 -15 10 -10 -4 -15 1 -15 14 0 13 -7 20 -20 20 -13 0 -20 -7 -20
-20 0 -25 -20 -27 -21 -2 0 13 -2 14 -6 2 -7 -19 -24 -30 -35 -24 -4 3 -8 24
-8 46 l0 41 113 -7 c61 -4 128 -11 147 -15z m-1593 -93 c-2 -18 -4 -4 -4 32 0
36 2 50 4 33 2 -18 2 -48 0 -65z m1272 40 c-1 -29 -4 -41 -6 -25 -5 33 -20 35
-33 5 -9 -22 -9 -22 -9 -2 -1 19 33 74 45 74 2 0 3 -24 3 -52z m-1225 -17 c-4
-3 -9 0 -11 7 -3 6 -9 10 -14 6 -5 -3 -9 3 -9 12 0 16 2 16 20 -1 11 -10 17
-21 14 -24z m604 23 c-15 -15 -18 -15 -39 0 -23 16 -23 16 16 16 36 0 38 -1
23 -16z m-145 -10 c11 -11 -33 -63 -89 -104 -29 -22 -56 -40 -59 -40 -11 0 56
83 94 117 38 34 44 37 54 27z m-1196 -26 c-3 -8 -6 -5 -6 6 -1 11 2 17 5 13 3
-3 4 -12 1 -19z m1541 -44 c62 -65 75 -91 30 -62 -59 39 -128 100 -128 113 0
32 37 12 98 -51z m350 32 c-10 -24 -38 -44 -38 -28 0 9 38 52 45 52 3 0 0 -11
-7 -24z m-2451 8 c-3 -3 -12 -4 -19 -1 -8 3 -5 6 6 6 11 1 17 -2 13 -5z m66
-96 c59 -12 107 -25 107 -29 0 -3 -19 -2 -42 3 -86 17 -158 21 -158 9 0 -8 8
-10 20 -6 12 4 20 2 20 -6 0 -9 4 -8 15 1 13 10 15 9 15 -10 0 -18 -4 -21 -22
-17 -13 3 -81 13 -151 22 -118 16 -151 15 -134 -1 8 -8 245 -63 274 -64 12 0
25 -5 29 -11 5 -9 -4 -10 -32 -5 -21 4 -55 9 -74 12 -35 5 -35 5 -12 -12 12
-9 22 -23 22 -30 0 -8 4 -14 9 -14 5 0 11 -6 14 -14 5 -11 -1 -12 -30 -4 -68
18 -42 1 40 -26 173 -59 453 -133 464 -122 3 2 13 31 23 63 22 67 25 60 9 -20
-9 -44 -16 -57 -30 -57 -33 0 -787 155 -795 163 -2 2 12 53 32 113 20 60 38
114 39 120 3 11 90 -4 348 -58z m4026 -53 c22 -66 39 -120 37 -122 -14 -14
-802 -171 -810 -162 -7 8 -47 191 -43 195 2 2 14 -35 27 -83 12 -49 26 -92 30
-96 4 -5 70 7 146 27 144 37 402 119 349 111 -27 -4 -28 -3 -8 6 l21 11 -25
28 c-21 24 -30 28 -59 23 -61 -10 -36 4 39 22 204 47 248 58 253 66 8 14 -50
10 -186 -11 -152 -24 -140 -24 -140 -2 0 25 -6 30 -35 25 -17 -4 -25 -13 -27
-32 -3 -25 -4 -25 -9 5 l-5 31 170 33 c94 18 185 36 201 40 17 4 31 6 32 6 1
-1 20 -56 42 -121z m-2279 97 c0 -12 -70 -82 -121 -122 -48 -38 -42 -27 40 68
47 55 81 77 81 54z m215 -49 c61 -69 86 -103 65 -87 -72 52 -150 120 -150 131
0 29 38 10 85 -44z m-99 -32 c25 -28 34 -46 27 -48 -7 -3 -13 -9 -13 -15 0
-13 -41 -47 -58 -48 -12 0 -82 66 -82 78 0 9 74 82 81 79 3 -1 23 -22 45 -46z
m1704 10 c0 -5 -9 -7 -20 -4 -11 3 -20 7 -20 9 0 2 9 4 20 4 11 0 20 -4 20 -9z
m-3430 -16 c0 -8 -2 -15 -4 -15 -2 0 -6 7 -10 15 -3 8 -1 15 4 15 6 0 10 -7
10 -15z m-120 -7 c0 -4 -7 -8 -15 -8 -8 0 -15 4 -15 8 0 5 7 9 15 9 8 0 15 -4
15 -9z m47 -10 c-3 -8 -6 -5 -6 6 -1 11 2 17 5 13 3 -3 4 -12 1 -19z m1308 -8
c4 -6 -11 -10 -39 -10 -42 0 -45 -2 -56 -36 -8 -24 -15 -32 -20 -24 -6 10 -9
10 -15 0 -5 -8 -12 -2 -21 19 -18 44 -34 39 -34 -11 0 -32 -3 -39 -10 -28 -11
17 -13 83 -3 93 10 11 191 8 198 -3z m1094 -22 c-1 -18 -5 -44 -9 -58 -7 -22
-8 -20 -10 15 -1 31 -3 35 -9 20 -8 -19 -8 -19 -15 3 -9 26 -26 20 -26 -9 0
-33 -39 -24 -46 11 -6 28 -9 30 -55 30 -27 0 -49 5 -49 10 0 6 43 10 110 10
l110 0 -1 -32z m-1348 -20 c-3 -34 -5 -39 -12 -23 -7 18 -8 18 -9 -5 l-1 -25
-22 28 c-13 15 -26 27 -29 27 -4 0 -8 -12 -11 -27 -4 -28 -4 -27 -12 7 -7 29
-9 31 -16 15 -4 -11 -8 -14 -8 -7 -1 20 -19 14 -26 -9 -6 -17 -9 -19 -16 -8
-5 8 -9 24 -9 36 0 23 17 28 125 31 l51 2 -5 -42z m1554 33 c20 -4 26 -9 18
-14 -7 -5 -13 -22 -13 -38 0 -18 -4 -28 -10 -24 -5 3 -10 15 -10 26 0 21 -16
26 -23 7 -3 -8 -6 -6 -6 5 -2 29 -29 19 -36 -14 -5 -23 -9 -28 -16 -18 -5 8
-9 10 -9 5 0 -6 -7 -1 -15 10 -14 18 -14 18 -16 -6 l-1 -25 -8 25 c-4 14 -8
35 -9 48 -1 21 3 22 62 21 34 -1 76 -4 92 -8z m-1754 -44 c-4 -31 -6 -35 -9
-17 -5 35 -20 49 -32 30 -8 -12 -10 -11 -10 6 0 16 6 21 28 22 26 1 27 -1 23
-41z m1808 11 c0 -28 -2 -30 -9 -13 -12 28 -12 45 0 45 6 0 10 -15 9 -32z
m-2292 -20 c-3 -7 -5 -2 -5 12 0 14 2 19 5 13 2 -7 2 -19 0 -25z m-10 -60 c-3
-7 -5 -2 -5 12 0 14 2 19 5 13 2 -7 2 -19 0 -25z m970 -2 l22 -33 -25 -12
c-13 -6 -24 -16 -24 -22 0 -6 -11 -1 -25 12 -13 13 -25 29 -25 36 0 12 38 53
49 53 3 0 16 -15 28 -34z m908 4 c17 -18 16 -20 -6 -49 -28 -35 -39 -38 -39
-12 0 11 -9 23 -21 26 l-21 7 23 24 c27 29 40 30 64 4z m-728 -57 c33 -38 68
-80 78 -95 16 -27 16 -28 0 -28 -29 0 -82 38 -134 97 -41 46 -48 59 -40 74 16
31 34 22 96 -48z m577 51 c8 -20 1 -32 -57 -93 -49 -52 -62 -60 -69 -40 -2 7
-10 4 -18 -7 -14 -16 -13 -17 3 -11 9 3 17 2 17 -3 0 -14 -18 -21 -25 -10 -5
8 -11 7 -21 -1 -8 -6 -14 -7 -14 -2 0 16 150 183 165 183 7 0 16 -7 19 -16z
m1886 -154 c17 -33 30 -64 30 -69 0 -5 -17 -12 -37 -16 -21 -3 -121 -29 -223
-56 -147 -39 -456 -109 -483 -109 -7 0 -39 141 -33 147 2 3 10 -20 17 -50 19
-86 15 -84 121 -63 99 20 194 48 400 118 186 64 185 70 -7 38 -65 -10 -121
-17 -123 -16 -4 4 45 20 90 30 24 6 27 10 21 36 -3 19 -1 30 6 30 6 0 11 -11
11 -25 0 -16 6 -25 15 -25 8 0 15 5 15 11 0 5 -4 7 -10 4 -6 -3 -10 5 -10 18
0 21 7 26 44 36 57 14 56 14 56 -5 0 -8 5 -12 11 -9 6 4 8 13 5 20 -5 13 29
26 47 17 4 -2 21 -30 37 -62z m-4349 38 c1 -17 2 -19 6 -5 8 30 43 21 50 -13
6 -33 33 -41 33 -10 0 11 -4 20 -10 20 -5 0 -10 4 -10 9 0 4 12 6 28 3 15 -3
21 -7 15 -9 -15 -5 -17 -39 -4 -48 5 -3 12 5 14 17 4 22 4 22 6 -2 1 -21 10
-28 54 -43 28 -10 62 -19 75 -20 12 0 22 -7 22 -13 0 -9 -8 -10 -32 -3 -42 12
-205 39 -237 39 -40 0 -16 -13 97 -51 59 -20 139 -48 178 -62 77 -28 278 -77
318 -77 26 0 28 4 50 104 4 15 9 27 11 25 6 -7 -22 -130 -32 -140 -11 -11
-172 21 -363 72 -63 17 -169 44 -235 60 -66 16 -125 32 -132 34 -8 3 -4 24 14
69 24 60 29 66 55 66 22 0 28 -5 29 -22z m1529 -22 c0 -2 -7 -6 -15 -10 -8 -3
-15 -1 -15 4 0 6 7 10 15 10 8 0 15 -2 15 -4z m1233 -3 c-7 -2 -21 -2 -30 0
-10 3 -4 5 12 5 17 0 24 -2 18 -5z m-1333 -40 c-1 -35 -2 -36 -14 -20 -14 18
-14 18 -19 0 -3 -12 -5 -9 -6 10 0 15 -5 27 -11 27 -5 0 -10 -12 -11 -27 l-1
-28 -10 28 c-5 15 -14 27 -19 27 -5 0 -10 -12 -10 -27 l-2 -28 -4 28 c-5 34
-21 35 -29 2 -3 -14 -10 -25 -14 -25 -12 0 -18 59 -6 64 6 2 44 5 84 5 l72 1
0 -37z m240 25 c0 -6 3 -9 6 -6 9 9 85 -78 82 -93 -2 -8 2 -13 8 -12 19 4 186
-174 182 -194 -2 -10 -7 -17 -11 -16 -19 4 -308 313 -302 323 9 14 35 13 35
-2z m945 -6 c0 -7 -65 -82 -145 -167 -126 -135 -146 -153 -159 -140 -13 12 -1
28 90 127 57 62 124 132 148 156 42 41 66 49 66 24z m365 10 c11 -5 14 -16 9
-42 l-6 -35 -12 29 c-12 30 -25 27 -34 -9 -4 -19 -5 -19 -6 1 0 12 -8 27 -16
34 -12 10 -16 6 -24 -22 -9 -32 -9 -32 -10 -5 -2 52 -30 25 -32 -31 -1 -27 -1
-27 -9 3 -4 17 -8 42 -9 58 -1 27 -1 27 67 26 37 0 74 -3 82 -7z m1124 -8 c8
-21 8 -24 -3 -24 -5 0 -11 9 -14 20 -6 24 8 27 17 4z m-2871 -31 c-7 -46 -13
-55 -13 -20 0 14 -3 32 -6 41 -4 10 -1 16 9 16 13 0 15 -8 10 -37z m1813 15
c-3 -13 -6 -27 -7 -33 -1 -12 -17 25 -18 43 -1 6 6 12 15 12 12 0 15 -6 10
-22z m-1027 -138 c5 0 14 14 21 30 10 24 15 28 26 19 20 -17 17 -34 -12 -68
l-25 -31 -23 23 c-13 12 -43 44 -67 71 l-44 50 58 -47 c32 -26 62 -47 66 -47z
m-373 -69 c-54 -58 -157 -156 -228 -217 -31 -27 -55 -55 -52 -62 2 -7 0 -11
-5 -8 -5 3 -44 -27 -87 -68 -116 -107 -330 -296 -378 -332 -22 -18 -66 -55
-96 -83 -30 -28 -68 -53 -85 -56 -16 -3 -76 -5 -131 -3 l-102 3 101 80 c215
170 573 483 862 753 l150 141 46 -52 46 -51 -41 -45z m653 80 c-30 -32 -57
-59 -60 -60 -3 0 -20 17 -38 40 -25 30 -30 44 -22 52 8 8 19 3 42 -20 l31 -30
46 43 c26 23 49 41 51 38 2 -2 -20 -30 -50 -63z m536 -97 c263 -242 569 -505
835 -719 47 -37 90 -73 97 -79 9 -8 -27 -10 -134 -9 -80 1 -148 5 -152 8 -3 4
-1 5 4 3 6 -2 11 1 13 5 5 13 -178 158 -190 151 -6 -4 -8 -3 -5 3 8 13 -90
106 -103 98 -6 -4 -9 -2 -8 4 3 10 -58 69 -352 335 -69 63 -158 147 -198 188
l-73 74 41 47 c23 26 45 47 48 47 4 0 84 -71 177 -156z m-1085 -27 c0 -14 -28
11 -52 47 l-21 31 36 -34 c21 -19 37 -39 37 -44z m809 56 c-11 -13 -11 -17 -1
-20 6 -3 12 -10 12 -16 0 -8 -4 -7 -12 1 -10 10 -27 -3 -81 -60 -69 -73 -55
-53 37 55 28 31 52 57 54 57 3 0 -2 -7 -9 -17z m-2439 -59 c96 -45 208 -115
240 -150 l25 -27 -25 13 c-14 7 -36 22 -50 32 -34 25 -130 60 -130 48 0 -6 6
-10 14 -10 8 0 17 -3 20 -8 3 -6 -231 27 -242 34 -2 1 2 28 9 59 12 53 14 56
38 50 14 -3 60 -22 101 -41z m1541 23 c-10 -9 -11 -8 -5 6 3 10 9 15 12 12 3
-3 0 -11 -7 -18z m955 1 l19 -23 -25 20 c-14 11 -27 21 -29 22 -2 2 0 3 6 3 5
0 18 -10 29 -22z m1688 -28 c24 -60 21 -67 -26 -74 -24 -3 -79 -13 -123 -21
-44 -8 -90 -12 -102 -9 -22 6 -85 -25 -150 -73 -18 -13 -33 -21 -33 -18 0 24
228 177 312 210 90 34 103 33 122 -15z m-2619 10 c-10 -11 -20 -18 -23 -15 -7
6 18 35 31 35 5 0 2 -9 -8 -20z m960 -20 c-3 -5 -12 -10 -18 -10 -7 0 -6 4 3
10 19 12 23 12 15 0z m-835 -45 c19 -19 32 -35 29 -35 -3 0 -20 16 -39 35 -19
19 -32 35 -29 35 3 0 20 -16 39 -35z m865 26 c3 -5 0 -13 -6 -17 -7 -4 -9 -3
-5 4 3 5 0 13 -6 15 -9 4 -10 6 -1 6 6 1 14 -3 18 -8z m-2525 -152 c88 -33
240 -111 240 -123 0 -2 -37 14 -82 36 -72 35 -280 98 -327 98 -25 0 -44 16
-36 30 11 18 86 4 205 -41z m4194 35 c9 -23 7 -36 -3 -30 -30 19 -338 -71
-427 -125 -17 -11 -35 -19 -40 -19 -21 0 147 93 221 121 82 33 197 67 226 68
9 1 20 -6 23 -15z m-2859 -211 c-110 -108 -270 -257 -355 -331 -85 -75 -170
-149 -187 -166 -18 -16 -35 -27 -38 -24 -3 3 56 61 132 129 76 68 167 150 203
184 35 33 96 89 135 125 38 36 121 114 183 173 61 59 115 107 120 107 4 -1
-83 -89 -193 -197z m-1378 132 c59 -19 104 -34 98 -34 -5 -1 -66 10 -134 24
-68 14 -126 25 -128 25 -2 0 -3 7 -3 16 0 19 15 16 167 -31z m4253 -17 c6 -29
14 -83 17 -119 l6 -66 -39 -6 c-57 -10 -86 -8 -79 3 3 6 17 10 31 10 20 0 24
5 23 28 -1 15 -4 38 -8 52 -6 22 -8 23 -14 7 -4 -10 -2 -27 3 -38 9 -16 7 -19
-14 -17 -21 2 -25 8 -31 54 -5 44 -10 53 -28 56 -14 3 -1 9 35 17 62 15 86 26
76 36 -6 6 -133 -11 -238 -31 -75 -15 -17 8 91 36 158 40 155 41 169 -22z
m-2940 39 c0 -2 -10 -12 -21 -23 -22 -19 -22 -19 -8 4 12 19 29 30 29 19z
m1327 -108 c102 -98 382 -360 506 -473 54 -49 96 -91 93 -93 -10 -11 -487 427
-651 597 -81 84 -44 63 52 -31z m-2677 17 c0 -20 0 -20 -15 0 -13 18 -14 17
-15 -19 0 -22 -4 -36 -10 -32 -5 3 -7 19 -3 35 3 19 1 30 -6 30 -6 0 -11 -17
-12 -37 0 -21 -4 -47 -9 -58 l-9 -20 -1 20 -1 20 -9 -20 c-10 -25 1 -37 48
-52 l37 -12 -40 4 c-22 2 -54 4 -71 5 -18 0 -34 6 -37 13 -4 12 10 151 18 174
3 8 22 6 69 -10 52 -17 66 -25 66 -41z m2210 45 c-20 -4 -42 -11 -50 -16 -17
-11 -91 -14 -84 -4 4 7 -39 15 -121 22 -22 2 34 4 125 4 91 0 149 -2 130 -6z
m-929 -14 c-6 -8 -8 -17 -4 -21 4 -4 -1 -4 -11 0 -18 7 -18 8 0 21 23 17 30
17 15 0z m-1244 -23 c-3 -3 -12 -4 -19 -1 -8 3 -5 6 6 6 11 1 17 -2 13 -5z
m4092 -16 c-1 -16 -3 -18 -6 -6 -2 9 -12 19 -21 21 -12 3 -10 5 6 6 17 1 22
-4 21 -21z m-2102 -20 c-3 -7 -5 -2 -5 12 0 14 2 19 5 13 2 -7 2 -19 0 -25z
m2140 0 c-3 -8 -6 -5 -6 6 -1 11 2 17 5 13 3 -3 4 -12 1 -19z m-1306 -5 c13
-16 12 -17 -3 -4 -10 7 -18 15 -18 17 0 8 8 3 21 -13z m-1651 -20 c-12 -8 -24
-12 -27 -9 -3 3 2 8 11 12 9 3 13 10 10 15 -3 5 2 6 11 3 14 -6 13 -9 -5 -21z
m1724 -2 c3 -5 -1 -12 -10 -15 -8 -3 -12 -2 -9 3 3 5 1 12 -5 16 -5 3 -10 1
-10 -6 0 -10 -3 -10 -11 -2 -18 18 -1 35 21 23 10 -6 21 -14 24 -19z m-48 -22
c19 -22 19 -22 -3 -10 -13 6 -23 16 -23 21 0 15 5 12 26 -11z m120 -51 c3 -4
-1 -5 -10 -4 -8 1 -18 5 -22 8 -3 4 1 5 10 4 8 -1 18 -5 22 -8z m-1952 -63
c-4 -8 -10 -12 -15 -9 -11 6 -2 24 11 24 5 0 7 -7 4 -15z m3285 -47 c1 -16 -9
-18 -81 -18 -46 -1 -119 -7 -163 -15 -44 -8 -87 -14 -95 -14 -23 1 166 46 248
60 39 6 72 16 72 21 0 5 -8 7 -17 4 -10 -2 -43 -8 -73 -11 -30 -4 -93 -16
-139 -26 -46 -11 -86 -18 -88 -15 -7 7 159 48 242 61 77 11 80 11 87 -9 3 -12
6 -29 7 -38z m-4273 11 c61 -15 122 -33 135 -39 l24 -11 -25 6 c-14 3 -79 16
-145 30 -208 44 -212 45 -193 31 10 -7 67 -23 128 -36 61 -13 109 -25 107 -27
-2 -1 -55 4 -117 12 -63 8 -120 15 -127 15 -8 0 -13 12 -13 31 l0 31 58 -7
c31 -4 107 -20 168 -36z m920 -10 c-14 -11 -23 -25 -20 -31 4 -6 2 -8 -3 -5
-6 4 -13 0 -17 -8 -3 -8 -11 -15 -18 -15 -9 0 -8 3 2 10 8 5 11 10 6 10 -5 0
6 14 24 30 18 17 38 30 43 30 5 0 -2 -9 -17 -21z m2175 -6 c13 -16 12 -17 -3
-4 -10 7 -18 15 -18 17 0 8 8 3 21 -13z m-3257 -39 c33 -8 66 -20 71 -26 7 -8
6 -9 -3 -3 -8 4 -21 -1 -32 -13 -14 -15 -16 -22 -7 -25 7 -3 2 -6 -10 -6 -13
-1 -23 -7 -23 -13 0 -9 -4 -8 -10 2 -8 11 -10 6 -8 -20 3 -30 7 -36 33 -40 25
-5 27 -7 12 -13 -26 -10 -95 -9 -101 2 -6 10 5 171 12 171 2 0 32 -7 66 -16z
m4440 -9 c3 -13 9 -52 13 -85 l6 -60 -52 0 -51 0 1 38 c1 33 2 34 9 12 l8 -25
1 27 c1 15 -4 30 -9 33 -6 4 -8 10 -5 15 3 4 -4 10 -15 13 -15 4 -20 0 -20
-16 -1 -20 -3 -20 -25 8 l-25 30 73 17 c39 9 75 16 78 17 4 1 10 -10 13 -24z
m-4197 9 c-3 -3 -12 -4 -19 -1 -8 3 -5 6 6 6 11 1 17 -2 13 -5z m766 -17 c3
-8 -1 -14 -8 -14 -7 0 -11 6 -8 14 3 7 6 13 8 13 2 0 5 -6 8 -13z m1027 -37
c0 -5 -4 -10 -9 -10 -6 0 -13 5 -16 10 -3 6 1 10 9 10 9 0 16 -4 16 -10z m168
3 c-21 -2 -57 -2 -80 0 -24 2 -7 4 37 4 44 0 63 -2 43 -4z m105 0 c-7 -2 -19
-2 -25 0 -7 3 -2 5 12 5 14 0 19 -2 13 -5z m-2363 -181 c8 -4 16 -18 18 -32 4
-31 28 -50 63 -50 15 0 31 -4 34 -10 4 -6 -6 -10 -22 -10 -15 0 -51 -3 -79 -6
l-51 -6 -7 35 c-8 42 1 87 18 86 6 0 18 -3 26 -7z m603 -128 l47 -7 2 -856 3
-856 24 -45 c13 -25 50 -75 82 -112 l60 -66 -63 -7 c-87 -9 -688 -2 -688 8 0
5 27 51 60 102 34 51 65 108 70 127 12 39 14 1128 3 1128 -5 -1 -37 -37 -73
-81 -36 -45 -135 -165 -220 -269 -85 -103 -174 -210 -197 -239 l-41 -52 -58
176 -59 175 71 72 c176 182 493 544 598 683 38 50 75 98 84 108 13 14 33 17
132 17 65 0 138 -3 163 -6z m2022 -9 c192 -41 336 -183 365 -362 13 -77 13
-1140 0 -1218 -22 -135 -110 -252 -235 -312 -101 -48 -171 -52 -927 -52 l-658
-1 0 144 0 143 66 7 c82 8 124 25 152 61 l22 28 0 601 c0 457 -3 607 -13 626
-19 40 -91 70 -164 70 l-63 0 0 140 0 140 693 0 c570 0 704 -3 762 -15z m1997
-22 c114 -54 210 -158 249 -271 39 -114 36 -358 -7 -447 -24 -51 -103 -135
-169 -180 -30 -21 -55 -41 -54 -44 0 -3 30 -29 67 -56 83 -63 156 -157 179
-233 26 -82 25 -345 -1 -417 -43 -119 -149 -226 -252 -256 -39 -11 -143 -14
-514 -14 l-465 0 -59 24 c-80 32 -172 123 -217 216 l-34 70 0 185 c0 185 0
185 29 243 33 65 123 161 191 204 25 15 45 30 44 33 0 3 -37 32 -82 65 -93 68
-150 141 -173 223 -12 41 -15 90 -12 210 3 155 3 159 36 225 38 77 115 160
185 201 91 53 107 55 567 53 l425 -2 67 -32z m-4618 -109 c-22 -28 -30 -33
-32 -21 -3 15 48 70 57 62 1 -2 -10 -21 -25 -41z m-472 -506 c-7 -7 -12 -8
-12 -2 0 14 12 26 19 19 2 -3 -1 -11 -7 -17z"/>
<path d="M4998 7013 c-21 -14 -38 -32 -38 -39 0 -17 5 -17 33 -2 36 20 273 21
320 1 44 -19 58 -11 31 18 -37 42 -67 49 -191 48 -110 0 -121 -2 -155 -26z"/>
<path d="M5085 6933 c-22 -6 -35 -21 -35 -43 0 -13 18 -15 107 -13 60 1 109 6
111 12 2 5 -6 19 -17 30 -17 17 -33 21 -83 20 -35 -1 -72 -4 -83 -6z"/>
<path d="M5361 6852 c-6 -12 -11 -27 -11 -34 1 -7 8 0 16 15 9 16 13 31 11 34
-3 2 -10 -4 -16 -15z"/>
<path d="M5303 6783 c-15 -5 -17 -23 -4 -23 5 0 11 7 15 15 3 8 4 15 3 14 -1
0 -8 -3 -14 -6z"/>
<path d="M5228 6773 c7 -3 16 -2 19 1 4 3 -2 6 -13 5 -11 0 -14 -3 -6 -6z"/>
<path d="M4374 7275 c-7 -18 3 -35 21 -35 16 0 38 34 28 44 -12 11 -44 6 -49
-9z"/>
<path d="M6470 6370 c-8 -5 -10 -10 -5 -10 6 0 17 5 25 10 8 5 11 10 5 10 -5
0 -17 -5 -25 -10z"/>
<path d="M6760 5970 l-25 -8 25 -1 c14 0 32 4 40 9 13 9 13 10 0 9 -8 -1 -26
-5 -40 -9z"/>
<path d="M3385 5680 c26 -11 55 -12 55 -2 0 5 -17 9 -37 10 -30 0 -34 -2 -18
-8z"/>
<path d="M3198 5173 c7 -3 16 -2 19 1 4 3 -2 6 -13 5 -11 0 -14 -3 -6 -6z"/>
<path d="M3160 4979 c0 -5 14 -9 30 -9 17 0 30 -5 30 -12 0 -9 3 -9 12 0 6 6
10 13 7 15 -10 10 -79 15 -79 6z"/>
<path d="M3085 4840 c11 -5 29 -8 40 -8 16 0 15 2 -5 8 -34 11 -60 11 -35 0z"/>
<path d="M7125 4980 c3 -5 12 -7 20 -3 21 7 19 13 -6 13 -11 0 -18 -4 -14 -10z"/>
<path d="M7038 4973 c-19 -3 -26 -10 -25 -24 1 -22 17 -26 17 -4 0 18 12 19
28 3 9 -9 12 -7 12 10 0 12 -1 21 -2 21 -2 -1 -15 -4 -30 -6z"/>
<path d="M7087 4963 c4 -11 8 -13 11 -5 2 7 9 9 14 6 7 -4 8 -2 4 4 -12 19
-36 15 -29 -5z"/>
<path d="M7180 4840 c-15 -5 -18 -8 -8 -9 9 -1 22 -3 30 -4 7 -2 10 -2 5 0 -4
3 -5 9 -1 14 3 5 4 9 2 8 -2 -1 -14 -5 -28 -9z"/>
<path d="M7235 4840 c-8 -13 5 -13 25 0 13 8 13 10 -2 10 -9 0 -20 -4 -23 -10z"/>
<path d="M7150 4810 c-18 -12 -2 -12 25 0 13 6 15 9 5 9 -8 0 -22 -4 -30 -9z"/>
<path d="M7220 4643 c0 -13 5 -23 10 -23 13 0 13 11 0 30 -8 12 -10 11 -10 -7z"/>
<path d="M7251 4644 c0 -11 3 -14 6 -6 3 7 2 16 -1 19 -3 4 -6 -2 -5 -13z"/>
<path d="M4740 4566 c0 -2 8 -10 18 -17 15 -13 16 -12 3 4 -13 16 -21 21 -21
13z"/>
<path d="M4358 4202 c-121 -104 -568 -505 -568 -509 0 -7 144 113 305 253 139
121 345 313 335 313 -3 0 -35 -26 -72 -57z"/>
<path d="M3754 3668 l-19 -23 23 19 c12 11 22 21 22 23 0 8 -8 2 -26 -19z"/>
<path d="M5969 4171 c97 -94 378 -338 497 -432 43 -34 88 -69 99 -78 51 -40
-21 28 -120 114 -555 479 -600 517 -476 396z"/>
<path d="M3063 4354 c14 -15 119 -44 107 -29 -6 7 -23 15 -38 19 -15 3 -38 9
-52 12 -14 4 -21 3 -17 -2z"/>
<path d="M7192 4339 c-77 -30 -59 -33 29 -5 41 13 63 24 49 24 -14 1 -49 -8
-78 -19z"/>
<path d="M4808 3093 c-2 -5 -2 -302 0 -661 l4 -653 291 3 c262 3 296 5 330 22
70 35 68 11 65 642 l-3 566 -37 33 c-20 18 -53 38 -75 44 -43 12 -570 15 -575
4z"/>
<path d="M6841 3089 c-55 -11 -89 -33 -102 -67 -7 -16 -9 -78 -7 -154 4 -120
6 -130 34 -175 23 -36 44 -55 89 -78 58 -30 60 -30 214 -29 174 1 202 8 270
70 56 50 71 102 71 245 0 111 -1 119 -25 147 -15 18 -41 34 -69 41 -52 13
-409 13 -475 0z"/>
<path d="M6871 2279 c-119 -60 -147 -124 -139 -327 3 -90 6 -103 27 -126 14
-14 41 -30 60 -36 20 -5 139 -10 264 -10 329 0 332 2 332 204 -1 116 -4 137
-24 178 -26 54 -77 102 -135 129 -34 15 -67 19 -182 19 -138 0 -142 -1 -203
-31z"/>
<path d="M4890 8739 c-140 -14 -130 -5 -109 -100 9 -44 19 -83 22 -85 2 -2 29
7 60 20 98 44 174 59 292 60 120 0 184 -12 287 -55 l68 -28 4 22 c20 107 22
147 7 152 -81 24 -449 32 -631 14z"/>
<path d="M3675 7955 c-31 -30 -31 -46 -1 -74 31 -29 68 -23 84 14 16 35 15 42
-8 65 -26 26 -46 25 -75 -5z"/>
<path d="M6577 7962 c-32 -35 -10 -102 34 -102 29 0 59 31 59 60 0 54 -59 80
-93 42z"/>
<path d="M2900 6240 c-23 -23 -24 -33 -10 -61 21 -39 90 -16 90 30 0 14 -37
51 -50 51 -5 0 -19 -9 -30 -20z"/>
<path d="M7679 5989 c-27 -27 -21 -61 13 -77 53 -25 101 35 63 78 -23 26 -50
25 -76 -1z"/>
<path d="M2406 5658 c-37 -53 -5 -118 57 -118 61 0 94 66 57 113 -28 36 -91
38 -114 5z"/>
<path d="M7963 4768 c-42 -55 -2 -109 58 -78 22 12 26 59 7 78 -16 16 -53 15
-65 0z"/>
<path d="M8062 4604 c10 -10 20 -15 24 -12 3 4 -5 12 -18 18 -22 12 -22 12 -6
-6z"/>
<path d="M3222 7133 c-35 -30 -38 -68 -8 -97 31 -32 50 -33 81 -1 29 28 32 55
8 83 -26 30 -57 35 -81 15z"/>
<path d="M7938 5655 c-9 -19 -8 -29 6 -50 19 -29 46 -32 69 -7 34 38 15 82
-35 82 -20 0 -32 -7 -40 -25z"/>
<path d="M2316 6778 c-20 -28 -20 -61 -1 -97 26 -51 73 -55 117 -11 25 26 29
36 24 62 -10 49 -33 68 -82 68 -33 0 -46 -5 -58 -22z"/>
<path d="M7025 6946 c-31 -48 18 -102 64 -69 23 16 28 62 9 81 -20 20 -56 14
-73 -12z"/>
<path d="M7375 6254 c-21 -21 -16 -63 10 -80 29 -19 65 6 65 45 0 48 -42 68
-75 35z"/>
<path d="M2031 6254 c-26 -33 -27 -65 -3 -92 49 -59 131 -16 123 65 -2 22 -44
53 -72 53 -18 0 -35 -9 -48 -26z"/>
<path d="M2063 4535 c0 -33 2 -45 4 -27 2 18 2 45 0 60 -2 15 -4 0 -4 -33z"/>
<path d="M8190 6260 c-39 -39 -16 -112 40 -125 38 -9 80 27 80 69 0 64 -76
100 -120 56z"/>
<path d="M1792 5818 c-7 -7 -12 -19 -12 -28 0 -40 61 -55 80 -21 13 25 13 27
-6 45 -18 19 -45 21 -62 4z"/>
<path d="M8480 5820 c-25 -25 -23 -47 7 -67 19 -13 24 -12 43 7 25 25 23 47
-7 67 -19 13 -24 12 -43 -7z"/>
<path d="M2272 4750 c-17 -28 -15 -44 8 -65 24 -22 65 -14 80 16 27 49 -58 97
-88 49z"/>
<path d="M2426 4361 c-9 -10 -19 -34 -23 -54 -12 -75 82 -116 142 -61 23 22
27 31 22 62 -4 20 -16 45 -28 55 -29 23 -91 22 -113 -2z"/>
<path d="M7785 4356 c-26 -40 -22 -86 9 -113 34 -29 75 -30 110 -2 33 26 35
75 5 113 -17 21 -29 26 -64 26 -36 0 -48 -5 -60 -24z"/>
</g>
</svg>
